<?xml version="1.0" encoding="utf-8"?>
<!-- Generator: Adobe Illustrator 25.4.1, SVG Export Plug-In . SVG Version: 6.00 Build 0)  -->
<svg version="1.1" id="Layer_1" xmlns="http://www.w3.org/2000/svg" xmlns:xlink="http://www.w3.org/1999/xlink" x="0px" y="0px"
	 viewBox="0 0 100 150" style="enable-background:new 0 0 100 150;" xml:space="preserve">
<style type="text/css">
	.st0{fill:#FFFFFF;}
	.st1{display:none;}
	.st2{display:inline;fill:#FFFFFF;}
</style>
<path class="st0" d="M0,0v150h100V0H0z M78.03,118.88l-4.8-7.41l-4.68,7.41H57.89l10.03-13.99l-9.65-13.72l-8.87,27.71H39.37
	l-4.48-14.83l-4.72,14.83H20.15l-8.88-27.75h9.63l4.84,15.78l5.11-15.78h8.6l4.84,15.98l5.11-15.98h8.84l0.02,0.04l0.01-0.04h10.47
	l4.72,6.98l4.6-6.98h10.07l-9.63,13.4l10.23,14.35H78.03z"/>
<g class="st1">
	<path class="st2" d="M58.28,91.13l-8.88,27.75H39.37l-4.48-14.83l-4.72,14.83H20.15l-8.88-27.75h9.63l4.84,15.78l5.11-15.78h8.6
		l4.84,15.98l5.11-15.98H58.28z"/>
	<path class="st2" d="M78.03,118.88l-4.8-7.41l-4.68,7.41H57.89l10.03-13.99l-9.67-13.76h10.51l4.72,6.98l4.6-6.98h10.07l-9.63,13.4
		l10.23,14.35H78.03z"/>
</g>
</svg>
